<svg width="469" height="430" viewBox="0 0 469 430" fill="none" xmlns="http://www.w3.org/2000/svg">
<g clip-path="url(#clip0_6_664)">
<path d="M445.633 111.005C441.247 103.534 436.38 96.3232 431.061 89.4135C427.333 84.5659 423.394 79.8804 419.244 75.3561H419.234C411.725 67.1663 403.559 59.5352 394.808 52.5302C393.016 51.0941 391.201 49.6874 389.362 48.3101C372.757 35.8385 354.343 25.6803 334.683 18.1458L334.857 45.2694L336.739 354.464H173.681L164.511 45.8528L165.194 19.1623C85.2521 50.9051 29.1212 125.538 29.1212 212.553C29.1063 230.513 31.5333 248.401 36.3427 265.778C38.3741 273.124 40.8335 280.358 43.7096 287.447C44.7479 290.021 45.8433 292.571 46.9958 295.099C47.5513 296.329 48.1173 297.549 48.7039 298.765C49.4567 300.353 50.2406 301.936 51.0453 303.5C51.6683 304.73 52.3086 305.952 52.9662 307.166C53.8124 308.759 54.6864 310.339 55.588 311.905C56.2837 313.136 57.0001 314.356 57.727 315.572C69.4527 335.153 84.4268 352.835 102.079 367.944C107.11 372.252 112.345 376.337 117.783 380.197C156.269 407.5 203.105 422.262 251.244 422.262C299.383 422.262 346.22 407.5 384.705 380.197C387.664 378.1 390.563 375.931 393.401 373.693C395.285 372.213 397.139 370.705 398.961 369.169C399.444 368.762 399.927 368.356 400.404 367.944C416.678 354.015 430.684 337.894 441.968 320.101C446.112 313.578 449.869 306.842 453.224 299.926C454.111 298.103 454.971 296.263 455.804 294.407C459.635 285.898 462.857 277.155 465.45 268.238C465.849 266.861 466.236 265.479 466.608 264.092V264.087C466.67 263.847 466.737 263.602 466.799 263.362C467.184 261.901 467.552 260.43 467.905 258.96V258.955C469.047 254.216 470.011 249.419 470.797 244.564C470.895 243.942 470.994 243.319 471.088 242.697C471.124 242.471 471.16 242.246 471.187 242.021V242.016C471.747 238.266 472.202 234.488 472.552 230.683C473.092 224.708 473.363 218.665 473.367 212.553C473.426 177.027 463.88 142.075 445.633 111.005Z" fill="#F2F2F2"/>
<path d="M226.818 71.9331C243.861 71.9331 257.678 58.8891 257.678 42.7982C257.678 26.7073 243.861 13.6631 226.818 13.6631C209.775 13.6631 195.958 26.7073 195.958 42.7982C195.958 58.8891 209.775 71.9331 226.818 71.9331Z" fill="#FFD68D"/>
<path d="M321.304 41.2779C318.524 38.5046 315.588 35.8736 312.51 33.3964C306.498 28.5832 299.842 24.4905 292.423 21.9123C289.63 20.9384 286.744 20.2211 283.805 19.7703C283.452 19.7165 283.104 19.6625 282.751 19.6184C282.725 19.6159 282.7 19.6159 282.673 19.6184C282.619 19.6038 282.563 19.594 282.507 19.5889C281.786 19.5007 281.064 19.4321 280.337 19.3831C276.423 19.1374 272.492 19.4715 268.687 20.3732C266.48 20.8991 264.325 21.6076 262.25 22.4906C260.17 23.4519 258.154 24.5305 256.212 25.7207C255.169 26.3188 254.095 26.8668 252.993 27.3627C249.777 28.8013 246.373 29.8298 242.87 30.4212C240.504 30.8219 238.108 31.0448 235.705 31.0878C233.618 31.127 231.65 31.1957 229.672 31.9064C227.561 32.6552 225.665 33.8599 224.135 35.4242C222.606 36.9884 221.485 38.8689 220.862 40.9152C220.813 41.0969 220.827 41.2887 220.902 41.4625C220.976 41.6362 221.108 41.7828 221.277 41.8808C221.812 42.2435 222.332 42.6553 222.897 42.9788C223.397 43.1939 223.93 43.3313 224.475 43.3856C225.368 43.562 226.263 43.7336 227.16 43.9002C230.456 44.5178 233.767 45.0651 237.091 45.5422C243.778 46.498 250.503 47.1711 257.266 47.5616C257.307 47.5673 257.349 47.5706 257.39 47.5715C265.031 48.0068 272.69 48.0771 280.337 47.7822C281.495 47.7381 282.647 47.6842 283.805 47.6204C288.628 47.3655 293.439 46.9636 298.238 46.4147C302.677 45.9049 307.098 45.2727 311.502 44.5178C314.648 43.9786 317.782 43.3774 320.904 42.714C321.056 42.6717 321.194 42.5932 321.304 42.486C321.414 42.3788 321.492 42.2467 321.533 42.1023C321.573 41.958 321.573 41.8062 321.533 41.6618C321.493 41.5174 321.414 41.3852 321.304 41.2779Z" fill="#5790CC"/>
<path d="M257.162 80.1269C252.694 75.6147 247.772 71.5242 242.465 67.9127C240.705 66.7458 238.893 65.6483 237.029 64.6431C234.744 63.3982 232.371 62.3023 229.927 61.3642C229.382 61.1536 228.831 60.9524 228.281 60.7616C225.155 59.6679 221.912 58.8992 218.609 58.4675C218.583 58.4626 218.557 58.4675 218.531 58.4626C218.479 58.4527 218.422 58.4428 218.37 58.4329C216.769 58.2371 215.156 58.1436 213.542 58.1535C212.384 58.1535 211.221 58.2124 210.069 58.3202C208.207 58.4934 206.36 58.7952 204.545 59.2225C203.647 59.4331 202.754 59.6783 201.876 59.9577C200.597 60.3552 199.34 60.8166 198.113 61.3395C198.092 61.3494 198.076 61.3543 198.056 61.3642C195.994 62.3161 193.997 63.3867 192.075 64.57C192.033 64.5942 191.987 64.6189 191.945 64.6431C189.762 65.8765 187.451 66.8976 185.051 67.6922C182.99 68.3723 180.875 68.9002 178.727 69.2703C176.362 69.6722 173.966 69.8933 171.563 69.9318C169.476 69.9714 167.508 70.0396 165.535 70.7555C163.424 71.5039 161.527 72.7086 159.996 74.273C158.465 75.8374 157.344 77.7174 156.72 79.764C156.672 79.946 156.686 80.1374 156.761 80.3112C156.835 80.4844 156.967 80.6312 157.135 80.7296C157.67 81.0925 158.195 81.4994 158.755 81.8227C159.254 82.0399 159.787 82.1769 160.333 82.2297C161.226 82.4062 162.119 82.5827 163.017 82.7493C166.314 83.3668 169.626 83.9123 172.954 84.3862C177.518 85.0384 182.1 85.5597 186.701 85.9501C188.882 86.1409 191.064 86.2981 193.248 86.4202C198.85 86.7391 204.457 86.8634 210.069 86.793C211.227 86.7782 212.384 86.754 213.542 86.7193C220.416 86.528 227.269 86.0414 234.101 85.2589C241.716 84.389 249.28 83.154 256.762 81.5583C256.913 81.5165 257.051 81.4384 257.161 81.3317C257.271 81.225 257.35 81.0931 257.39 80.949C257.43 80.8049 257.43 80.6537 257.39 80.5097C257.35 80.3656 257.272 80.2336 257.162 80.1269Z" fill="#5790CC"/>
<path d="M180.241 1.93446L207.428 356.633L153.054 361.189V6.44725C159.534 1.66906 168.834 0.921504 180.241 1.93446Z" fill="#CCCCCC"/>
<path d="M314.44 1.93446L287.253 356.633L341.627 361.189V6.44725C335.148 1.66906 325.847 0.921504 314.44 1.93446Z" fill="#CCCCCC"/>
<path d="M342.906 6.60196C341.219 2.69631 337.631 0 333.483 0H160.619C154.85 0 150.162 5.22484 150.162 11.6532V364.195C150.112 367.457 151.404 370.61 153.765 372.99C155.001 374.215 156.566 375.101 158.293 375.554C159.05 375.751 159.832 375.85 160.619 375.848H333.483C334.269 375.85 335.052 375.751 335.809 375.554C340.461 374.373 343.939 369.733 343.939 364.195V11.6532C343.944 9.9222 343.593 8.20676 342.906 6.60196ZM340.471 364.195C340.471 368.488 337.336 371.983 333.483 371.983H160.619C157.426 371.983 154.721 369.582 153.895 366.313C153.719 365.619 153.63 364.909 153.631 364.195V11.6532C153.631 7.3599 156.767 3.87093 160.619 3.87093H333.483C334.192 3.8704 334.896 3.98993 335.56 4.22387C338.4 5.20752 340.471 8.1642 340.471 11.6532V364.195Z" fill="#CCCCCC"/>
<path d="M342.205 107.16H151.898V110.437H342.205V107.16Z" fill="#CCCCCC"/>
<path d="M342.205 39.5203H151.898V42.797H342.205V39.5203Z" fill="#CCCCCC"/>
<path d="M342.205 161.771H151.898V165.048H342.205V161.771Z" fill="#CCCCCC"/>
<path d="M213.654 1.47046H210.183V208.192H213.654V1.47046Z" fill="#CCCCCC"/>
<path d="M283.919 1.47046H280.449V208.192H283.919V1.47046Z" fill="#CCCCCC"/>
<path d="M363.896 355.369H135.989C131.849 355.374 127.88 356.928 124.952 359.692C122.025 362.456 120.378 366.203 120.373 370.112C120.371 371.992 120.754 373.854 121.5 375.597C122.659 378.331 124.659 380.674 127.241 382.325C129.824 383.976 132.871 384.859 135.989 384.861H363.896C366.622 384.86 369.301 384.185 371.665 382.904C374.029 381.623 375.997 379.78 377.373 377.558C377.765 376.93 378.105 376.274 378.391 375.597C379.137 373.854 379.519 371.992 379.517 370.112C379.511 366.203 377.863 362.455 374.935 359.692C372.007 356.928 368.037 355.373 363.896 355.369Z" fill="#CCCCCC"/>
<path d="M342.205 200.546H153.054V211.468H342.205V200.546Z" fill="#CCCCCC"/>
<path d="M245.895 197.269H249.365C251.053 197.269 252.671 197.902 253.865 199.029C255.058 200.155 255.728 201.683 255.728 203.276H239.532C239.532 202.487 239.696 201.706 240.016 200.977C240.335 200.248 240.804 199.586 241.395 199.029C241.986 198.471 242.687 198.028 243.46 197.726C244.231 197.424 245.059 197.269 245.895 197.269Z" fill="#CCCCCC"/>
<path d="M250.966 231.349C270.764 231.349 286.813 216.197 286.813 197.506C286.813 178.814 270.764 163.663 250.966 163.663C231.169 163.663 215.119 178.814 215.119 197.506C215.119 216.197 231.169 231.349 250.966 231.349Z" fill="#FFB8B8"/>
<path d="M210.978 164.949C211.249 161.062 213.971 157.085 222.621 155.007C222.621 155.007 237.464 137.087 257.635 146.484C257.635 146.484 267.413 144.896 274.665 154.475C274.665 154.475 281.854 150.472 284.887 157.567C284.887 157.567 293.318 172.04 290.214 186.802C287.11 201.565 285.521 203.407 285.521 203.407C285.521 203.407 289.478 172.871 266.689 174.989C243.899 177.106 225.552 169.54 220.391 186.106C216.105 199.862 216.645 207.006 216.645 207.006C216.645 207.006 202.315 193.284 207.187 182.477C209.679 176.951 210.56 170.942 210.978 164.949Z" fill="#2F2E41"/>
<path d="M153.485 382.461H351.764C350.438 368.181 349.572 313.597 349.572 310.004C349.572 294.16 335.839 276.868 335.839 276.868L330.924 274.303L289.873 262.211L279.25 249.182C278.138 247.814 276.704 246.709 275.062 245.952C273.421 245.195 271.616 244.808 269.789 244.821L236.23 245.059C233.277 245.08 230.439 246.142 228.272 248.036L207.491 266.237L177.012 279.978L176.96 279.929L176.642 280.153L172.119 283.228L169.209 285.213C169.209 285.213 161.577 293.859 155.476 319.79C154.559 323.69 153.914 374.178 153.485 382.461Z" fill="#5790CC"/>
<path d="M397.657 375.599C397.179 376.01 396.697 376.417 396.214 376.824C394.386 378.358 392.533 379.866 390.653 381.348C387.813 383.583 384.915 385.751 381.957 387.852H115.036C109.601 384 104.365 379.915 99.3315 375.599H397.657Z" fill="#CCCCCC"/>
<path d="M299.816 378.538H201.695L203.771 369.225H297.739L299.816 378.538Z" fill="#2F2E41"/>
<path d="M388.587 338.345H363.055C362.479 338.343 361.909 338.461 361.386 338.69C360.863 338.918 360.399 339.252 360.028 339.668C359.672 339.603 359.311 339.571 358.948 339.57C358.153 339.57 357.364 339.717 356.629 340.004C355.893 340.291 355.225 340.712 354.662 341.243C354.099 341.774 353.653 342.404 353.348 343.099C353.043 343.793 352.886 344.537 352.886 345.288C352.886 346.039 353.043 346.783 353.348 347.477C353.653 348.171 354.099 348.801 354.662 349.333C355.225 349.864 355.893 350.284 356.629 350.571C357.364 350.858 358.153 351.006 358.948 351.005C359.862 351.005 360.765 350.807 361.586 350.427L362.011 355.367L363.704 374.895C363.784 375.139 363.892 375.374 364.026 375.596C364.368 376.189 364.873 376.684 365.488 377.029C366.103 377.374 366.804 377.556 367.52 377.556H384.122C384.838 377.556 385.54 377.373 386.156 377.028C386.772 376.683 387.278 376.189 387.621 375.596C387.751 375.373 387.857 375.138 387.938 374.895L392.403 343.222C392.586 342.658 392.627 342.062 392.522 341.48C392.418 340.899 392.169 340.349 391.798 339.874C391.427 339.4 390.943 339.015 390.386 338.749C389.828 338.483 389.212 338.345 388.587 338.345ZM358.948 349.373C357.801 349.372 356.702 348.941 355.892 348.175C355.081 347.409 354.626 346.37 354.626 345.288C354.626 344.205 355.081 343.167 355.892 342.4C356.702 341.634 357.801 341.204 358.948 341.202C359.026 341.202 359.099 341.222 359.176 341.227C359.006 341.885 359.027 342.575 359.239 343.222L361.066 348.829C360.423 349.182 359.692 349.37 358.948 349.373Z" fill="#3F3D56"/>
<path d="M330.919 234.715H169.294C167.905 234.718 166.574 235.239 165.592 236.166C164.61 237.093 164.057 238.35 164.056 239.661V342.631C164.057 343.942 164.609 345.199 165.591 346.126C166.573 347.054 167.905 347.575 169.294 347.576H330.919C332.307 347.575 333.639 347.054 334.621 346.126C335.603 345.199 336.156 343.942 336.157 342.631V239.661C336.155 238.35 335.602 237.093 334.62 236.166C333.638 235.239 332.307 234.718 330.919 234.715Z" fill="#3F3D56"/>
<path d="M268.308 317.221H230.498C229.962 317.221 229.45 317.423 229.072 317.78C228.695 318.138 228.483 318.622 228.483 319.127V375.519H270.327V319.127C270.328 318.877 270.275 318.629 270.174 318.397C270.073 318.166 269.924 317.956 269.736 317.779C269.549 317.602 269.326 317.462 269.081 317.366C268.836 317.27 268.573 317.221 268.308 317.221ZM249.53 349.262C248.347 349.256 247.215 348.811 246.379 348.021C245.543 347.232 245.071 346.163 245.065 345.046V338.542C245.066 337.425 245.538 336.354 246.375 335.564C247.212 334.775 248.347 334.332 249.53 334.332C250.713 334.332 251.848 334.775 252.685 335.564C253.523 336.354 253.993 337.425 253.995 338.542V345.046C253.989 346.163 253.517 347.232 252.681 348.021C251.845 348.811 250.712 349.256 249.53 349.262Z" fill="#2F2E41"/>
<path d="M228.353 373.715V379.156C228.354 379.438 228.473 379.708 228.684 379.907C228.895 380.106 229.181 380.219 229.48 380.219H269.331C269.629 380.218 269.915 380.105 270.126 379.906C270.337 379.707 270.456 379.437 270.457 379.156V373.715H228.353Z" fill="#3F3D56"/>
<path d="M327.482 341.554C328.891 341.554 330.033 340.475 330.033 339.145C330.033 337.814 328.891 336.736 327.482 336.736C326.073 336.736 324.931 337.814 324.931 339.145C324.931 340.475 326.073 341.554 327.482 341.554Z" fill="#2F2E41"/>
<path d="M189.697 335.651C189.58 335.651 189.463 335.673 189.355 335.715C189.246 335.758 189.148 335.82 189.065 335.898C188.982 335.976 188.916 336.069 188.871 336.171C188.827 336.274 188.804 336.384 188.804 336.494V340.832C188.804 341.055 188.899 341.269 189.066 341.426C189.234 341.584 189.46 341.673 189.697 341.673C189.933 341.673 190.16 341.584 190.327 341.426C190.495 341.269 190.589 341.055 190.59 340.832V336.494C190.59 336.384 190.566 336.274 190.521 336.171C190.477 336.069 190.411 335.976 190.328 335.898C190.245 335.82 190.147 335.758 190.039 335.715C189.93 335.673 189.814 335.651 189.697 335.651Z" fill="#2F2E41"/>
<path d="M194.545 335.651C194.428 335.651 194.312 335.673 194.204 335.715C194.096 335.758 193.997 335.82 193.914 335.898C193.831 335.976 193.766 336.069 193.721 336.171C193.676 336.274 193.653 336.384 193.653 336.494V340.832C193.653 341.056 193.747 341.27 193.914 341.428C194.082 341.586 194.309 341.675 194.546 341.675C194.782 341.675 195.01 341.586 195.177 341.428C195.344 341.27 195.439 341.056 195.439 340.832V336.494C195.439 336.384 195.416 336.274 195.371 336.171C195.326 336.069 195.26 335.976 195.177 335.898C195.094 335.82 194.996 335.758 194.887 335.715C194.779 335.673 194.663 335.651 194.545 335.651Z" fill="#2F2E41"/>
<path d="M199.395 335.651C199.278 335.651 199.161 335.673 199.053 335.715C198.944 335.758 198.846 335.82 198.763 335.898C198.68 335.976 198.614 336.069 198.569 336.171C198.524 336.274 198.502 336.384 198.502 336.494V340.832C198.502 341.055 198.597 341.269 198.764 341.426C198.932 341.584 199.158 341.673 199.395 341.673C199.631 341.673 199.858 341.584 200.025 341.426C200.193 341.269 200.287 341.055 200.287 340.832V336.494C200.287 336.384 200.264 336.274 200.219 336.171C200.174 336.069 200.109 335.976 200.026 335.898C199.943 335.82 199.845 335.758 199.737 335.715C199.628 335.673 199.512 335.651 199.395 335.651Z" fill="#2F2E41"/>
<path d="M204.243 335.651C204.126 335.651 204.01 335.673 203.902 335.715C203.794 335.758 203.695 335.82 203.612 335.898C203.529 335.976 203.463 336.069 203.419 336.171C203.374 336.274 203.35 336.384 203.35 336.494V340.832C203.351 341.055 203.445 341.269 203.613 341.426C203.78 341.584 204.007 341.673 204.244 341.673C204.48 341.673 204.707 341.584 204.874 341.426C205.042 341.269 205.136 341.055 205.137 340.832V336.494C205.137 336.384 205.113 336.274 205.069 336.171C205.024 336.069 204.958 335.976 204.875 335.898C204.792 335.82 204.694 335.758 204.585 335.715C204.477 335.673 204.361 335.651 204.243 335.651Z" fill="#2F2E41"/>
<path d="M208.112 376.089C215.567 376.089 221.611 370.383 221.611 363.345C221.611 356.307 215.567 350.601 208.112 350.601C200.657 350.601 194.614 356.307 194.614 363.345C194.614 370.383 200.657 376.089 208.112 376.089Z" fill="#FFB8B8"/>
<path d="M302.412 378.539C309.866 378.539 315.91 372.833 315.91 365.795C315.91 358.757 309.866 353.051 302.412 353.051C294.957 353.051 288.914 358.757 288.914 365.795C288.914 372.833 294.957 378.539 302.412 378.539Z" fill="#FFB8B8"/>
<path d="M435.3 239.01C433.966 236.928 432.386 234.703 429.91 234.024C427.044 233.236 424.099 234.801 421.601 236.344C414.131 240.962 406.938 245.966 400.054 251.333L400.061 251.414C405.421 251.065 409.869 264.52 415.229 264.171C419.101 263.919 424.018 249.828 427.44 248.099C428.739 247.442 430.005 246.566 431.476 246.505C433.304 246.429 434.898 247.634 436.151 248.893C443.561 256.344 445.706 267.736 454.019 274.282C448.777 262.076 442.518 250.282 435.3 239.01Z" fill="#56B84E"/>
<path d="M449.906 257.193C453.846 263.928 458.025 270.529 462.443 276.997V277.002C462.417 277.229 462.38 277.458 462.344 277.685C461.81 276.913 461.282 276.137 460.758 275.358C456.792 269.47 453.023 263.469 449.451 257.357C447.755 254.449 446.102 251.52 444.49 248.566C443.245 246.278 442.026 243.977 440.833 241.663C440.492 240.999 440.163 240.336 439.833 239.667C439.059 238.102 438.295 236.527 437.478 234.982C436.547 233.219 435.411 231.377 433.701 230.193C432.922 229.632 431.991 229.292 431.016 229.213C429.642 229.221 428.298 229.586 427.128 230.268C418.276 234.671 410.015 240.063 402.52 246.328C395.015 252.568 388.307 259.616 382.531 267.33C382.353 267.568 381.934 267.34 382.112 267.097C382.819 266.157 383.53 265.231 384.263 264.309C393.342 252.883 404.474 243.057 417.15 235.279C419.279 233.972 421.451 232.726 423.665 231.541C424.779 230.941 425.899 230.352 427.04 229.797C428.131 229.192 429.356 228.832 430.619 228.747C434.962 228.683 437.212 233.338 438.755 236.468C439.237 237.453 439.727 238.437 440.226 239.42C442.104 243.134 444.056 246.818 446.081 250.473C447.327 252.726 448.601 254.966 449.906 257.193Z" fill="#3F3D56"/>
<path d="M402.124 244.076C401.874 243.812 401.625 243.549 401.373 243.286C399.386 241.212 397.255 239.161 394.526 237.972C393.226 237.387 391.806 237.077 390.366 237.061C388.879 237.1 387.413 237.401 386.045 237.951C385.394 238.196 384.758 238.475 384.131 238.771C383.416 239.112 382.713 239.474 382.013 239.84C380.699 240.526 379.402 241.243 378.122 241.99C375.576 243.475 373.11 245.074 370.723 246.787C369.485 247.675 368.274 248.592 367.087 249.538C365.984 250.418 364.903 251.32 363.844 252.246C363.618 252.444 363.28 252.124 363.507 251.927C363.786 251.682 364.068 251.438 364.35 251.197C365.147 250.517 365.957 249.849 366.78 249.195C368.28 248 369.819 246.851 371.397 245.748C373.851 244.032 376.389 242.433 379.012 240.949C380.322 240.209 381.651 239.499 382.998 238.821C383.405 238.616 383.816 238.416 384.232 238.226C385.176 237.776 386.157 237.4 387.165 237.099C388.594 236.662 390.105 236.522 391.596 236.688C393.036 236.886 394.423 237.339 395.684 238.023C398.363 239.437 400.44 241.622 402.462 243.755C402.666 243.972 402.33 244.292 402.124 244.076Z" fill="#3F3D56"/>
<path d="M382.523 254.056C381.843 254.088 381.169 253.906 380.61 253.539C379.127 252.479 379.166 249.932 380.728 245.753C381.154 244.621 381.82 243.583 382.687 242.704C383.554 241.824 384.602 241.122 385.767 240.64C386.859 240.179 388.041 239.938 389.237 239.931C390.433 239.924 391.617 240.153 392.715 240.601C392.906 240.679 393.095 240.764 393.281 240.854C394.552 241.526 395.743 242.324 396.834 243.234C397.762 243.993 398.751 244.684 399.793 245.297L400.14 245.49L399.811 245.709C391.401 251.299 385.699 254.056 382.523 254.056Z" fill="#56B84E"/>
<path d="M414.862 220.791C412.097 220.79 409.417 219.884 407.281 218.226C405.145 216.568 403.683 214.262 403.147 211.701C400.835 212.143 398.713 213.222 397.05 214.801C395.386 216.38 394.256 218.39 393.801 220.575C393.345 222.761 393.586 225.024 394.492 227.081C395.398 229.137 396.93 230.894 398.892 232.13C400.855 233.365 403.162 234.025 405.521 234.024C407.88 234.023 410.186 233.363 412.148 232.126C414.11 230.889 415.64 229.131 416.545 227.074C417.449 225.017 417.689 222.753 417.232 220.568C416.452 220.716 415.658 220.791 414.862 220.791Z" fill="#FFD68D"/>
<path d="M157.751 159.828L113.811 181.679L114.529 182.965L158.468 161.115L157.751 159.828Z" fill="#3F3D56"/>
<path d="M158.166 162.284C159.313 162.284 160.242 161.407 160.242 160.324C160.242 159.241 159.313 158.363 158.166 158.363C157.019 158.363 156.089 159.241 156.089 160.324C156.089 161.407 157.019 162.284 158.166 162.284Z" fill="#3F3D56"/>
<path d="M129.106 123.613V124.609C128.757 124.543 128.402 124.511 128.046 124.511H122.616V135.519C122.615 137.149 121.929 138.712 120.708 139.864C119.487 141.017 117.832 141.664 116.106 141.666H108.08V143.361C108.08 144.041 108.222 144.714 108.5 145.341H107.389C107.157 144.705 107.039 144.035 107.041 143.361V141.666H102.628V140.685H107.041V129.677C107.042 128.047 107.728 126.484 108.949 125.332C110.17 124.179 111.825 123.531 113.551 123.53H121.578V121.815H122.616V123.53H128.046C128.401 123.53 128.756 123.558 129.106 123.613Z" fill="#56B84E"/>
<path d="M116.106 115.688H101.611C99.8842 115.689 98.229 116.337 97.0082 117.489C95.7875 118.642 95.1014 120.205 95.1002 121.835V135.519C95.1014 137.149 95.7875 138.712 97.0082 139.864C98.229 141.017 99.8842 141.665 101.611 141.666H116.106C117.832 141.665 119.487 141.017 120.708 139.864C121.929 138.712 122.615 137.149 122.616 135.519V121.815C122.61 120.188 121.921 118.631 120.701 117.482C119.481 116.334 117.829 115.689 116.106 115.688ZM121.578 135.519C121.575 136.889 120.998 138.202 119.973 139.17C118.947 140.139 117.556 140.684 116.106 140.685H101.611C100.16 140.684 98.7695 140.139 97.7433 139.17C96.7176 138.202 96.1404 136.889 96.1387 135.519V121.835C96.1404 120.465 96.7176 119.152 97.7433 118.184C98.7695 117.215 100.16 116.67 101.611 116.668H116.106C117.553 116.67 118.941 117.212 119.966 118.176C120.991 119.14 121.57 120.448 121.578 121.815V135.519Z" fill="#3F3D56"/>
<path d="M107.041 140.686V141.666H108.08V140.686H107.041ZM107.041 140.686V141.666H108.08V140.686H107.041ZM129.106 123.614C128.756 123.559 128.401 123.531 128.046 123.531H113.551C111.825 123.531 110.17 124.18 108.949 125.332C107.728 126.484 107.042 128.047 107.041 129.677V143.362C107.039 144.035 107.157 144.705 107.389 145.342C107.827 146.557 108.657 147.612 109.762 148.359C110.867 149.106 112.192 149.508 113.551 149.508H128.046C129.772 149.507 131.428 148.859 132.648 147.707C133.869 146.554 134.556 144.992 134.556 143.362V129.677C134.556 128.221 134.008 126.811 133.01 125.701C132.011 124.59 130.627 123.851 129.106 123.614ZM133.519 143.362C133.516 144.732 132.939 146.045 131.913 147.013C130.888 147.981 129.497 148.526 128.046 148.528H113.551C112.101 148.526 110.71 147.981 109.685 147.013C108.658 146.044 108.081 144.732 108.08 143.362V129.677C108.081 128.307 108.658 126.994 109.684 126.026C110.71 125.058 112.101 124.513 113.551 124.511H128.046C129.498 124.511 130.889 125.056 131.915 126.024C132.941 126.993 133.518 128.307 133.519 129.677V143.362ZM107.041 140.686V141.666H108.08V140.686H107.041Z" fill="#3F3D56"/>
<path d="M435.461 171.661L430.383 164.48L426.672 159.231C426.455 158.925 426.151 158.682 425.794 158.532C425.437 158.382 425.044 158.331 424.657 158.383C424.271 158.436 423.908 158.591 423.612 158.831C423.315 159.07 423.096 159.384 422.98 159.736L421.418 164.48L418.271 174.014C418.147 174.394 418.148 174.8 418.275 175.179C418.402 175.559 418.649 175.892 418.981 176.136C419.314 176.379 419.718 176.52 420.139 176.542C420.559 176.563 420.976 176.463 421.335 176.254L422.451 175.602C422.676 175.471 422.932 175.397 423.196 175.386C423.459 175.375 423.721 175.427 423.958 175.539C424.193 175.651 424.395 175.817 424.544 176.023C424.693 176.228 424.784 176.467 424.808 176.715L425.831 187.253C425.878 187.737 426.115 188.187 426.496 188.515C426.875 188.843 427.372 189.026 427.887 189.027C427.949 189.027 428.011 189.022 428.079 189.017L429.647 188.885C429.917 188.862 430.18 188.789 430.42 188.669C430.661 188.55 430.874 188.387 431.047 188.19C431.221 187.993 431.351 187.765 431.432 187.521C431.512 187.275 431.541 187.018 431.516 186.763L430.461 175.882C430.436 175.626 430.483 175.368 430.597 175.135C430.711 174.902 430.888 174.701 431.11 174.554C431.332 174.406 431.591 174.315 431.862 174.292C432.133 174.269 432.406 174.313 432.652 174.421L432.881 174.519C433.29 174.697 433.749 174.743 434.189 174.652C434.629 174.561 435.025 174.336 435.317 174.012C435.609 173.689 435.781 173.284 435.807 172.86C435.833 172.435 435.711 172.014 435.461 171.661Z" fill="#CCCCCC"/>
<g opacity="0.7">
<path d="M34.6774 195.43L67.6542 256.362L12.2309 195.43H34.6774Z" fill="#EA6C00"/>
<path d="M100.637 195.43L67.66 256.362L123.083 195.43H100.637Z" fill="#EA6C00"/>
<path d="M34.6774 195.43H100.625L67.6542 256.362L34.6774 195.43Z" fill="#FDAD00"/>
<path d="M67.6542 161.662L36.413 164.78L34.6658 195.43L67.6542 161.662Z" fill="#FDD231"/>
<path d="M67.6542 161.662L98.8895 164.78L100.637 195.43L67.6542 161.662Z" fill="#FDD231"/>
<path d="M123.083 195.43L98.9011 164.78L100.648 195.43H123.083Z" fill="#FDAD00"/>
<path d="M12.2309 195.43L36.413 164.78L34.6658 195.43H12.2309Z" fill="#FDAD00"/>
<path d="M67.6542 161.662L34.6774 195.43H100.625L67.6542 161.662Z" fill="#FEEEB7"/>
</g>
<g opacity="0.7">
<path d="M361.387 64.6484H457.877V153.255H361.387V64.6484Z" fill="#2E001E"/>
<path d="M357.025 60.4858V157.395H462.286V60.4858H357.025ZM361.411 64.6319H457.9V153.255H361.387L361.411 64.6319Z" fill="#FF2BC2"/>
<path d="M433.468 101.209C432.662 100.897 431.793 100.755 430.923 100.791C425.401 100.791 421.715 104.811 421.715 111.475C421.715 119.097 425.489 122.159 430.398 122.159C431.429 122.189 432.457 122.034 433.427 121.703V101.209H433.468ZM413.805 111.811C413.805 102.161 420.381 94.6218 431.173 94.6218C431.933 94.6064 432.694 94.6356 433.45 94.7098V83.9433C433.45 83.8322 433.497 83.7261 433.58 83.648C433.663 83.5694 433.775 83.5254 433.893 83.5254H440.952C441.301 83.5254 441.389 83.6518 441.389 83.8608V121.703C441.363 123.059 441.437 124.415 441.61 125.761C441.61 126.053 441.61 126.097 441.348 126.217C437.841 127.796 434.004 128.617 430.119 128.62C420.602 128.62 413.811 123.072 413.811 111.811H413.805ZM398.849 105.102L411.144 127.57C411.365 127.9 411.231 128.23 410.882 128.23H403.252C403.055 128.254 402.855 128.211 402.687 128.111C402.519 128.011 402.393 127.858 402.332 127.68C399.524 122.214 396.659 116.541 393.735 110.662H393.648C391.015 116.21 388.12 122.258 385.313 127.708C385.243 127.848 385.13 127.967 384.989 128.048C384.849 128.129 384.686 128.17 384.521 128.164H377.241C376.804 128.164 376.763 127.829 376.979 127.581L388.994 105.762L377.375 84.1302C377.321 84.0763 377.285 84.0087 377.272 83.9356C377.26 83.8624 377.271 83.7871 377.304 83.72C377.337 83.6529 377.392 83.5969 377.459 83.5595C377.527 83.5215 377.605 83.5039 377.683 83.5089H385.226C385.663 83.5089 385.884 83.5914 386.012 83.9653C388.779 89.464 391.586 94.8967 394.218 100.461H394.306C396.845 94.9957 399.652 89.464 402.332 84.0643C402.547 83.7288 402.681 83.5144 403.118 83.5144H410.183C410.532 83.5144 410.66 83.7618 410.445 84.1357L398.866 105.13L398.849 105.102Z" fill="#FF2BC2"/>
</g>
</g>
<defs>
<clipPath id="clip0_6_664">
<rect width="468.85" height="430" fill="white"/>
</clipPath>
</defs>
</svg>
